# MagicaVoxel @ Ephtracy

# group
o 

# material
mtllib chr_knight.mtl
usemtl palette

# normals
vn -1 0 0
vn 1 0 0
vn 0 0 1
vn 0 0 -1
vn 0 -1 0
vn 0 1 0

# texcoords
vt 0.0332031 0.5
vt 0.0371094 0.5
vt 0.0683594 0.5
vt 0.251953 0.5
vt 0.369141 0.5
vt 0.603516 0.5
vt 0.623047 0.5
vt 0.767578 0.5
vt 0.994141 0.5

# verts
v -0.4 0.2 0.2
v -0.4 0.2 -0.4
v -0.4 0.3 0.2
v -0.4 0.3 -0.4
v -0.3 0.2 0.3
v -0.3 0.2 0.2
v -0.3 0.3 0.3
v -0.3 0.3 0.2
v -0.3 0.3 -0.3
v -0.3 0.6 0.3
v -0.3 0.6 0.2
v -0.3 0.8 -0.2
v -0.3 0.8 -0.3
v -0.3 0.9 0.2
v -0.3 0.9 -0.2
v -0.2 0 -2.98023e-008
v -0.2 0 -0.1
v -0.2 0.1 -2.98023e-008
v -0.2 0.1 -0.1
v -0.2 0.2 -2.98023e-008
v -0.2 0.2 -0.1
v -0.2 0.8 -0.2
v -0.2 0.8 -0.3
v -0.2 0.9 0.1
v -0.2 0.9 -0.2
v -0.2 0.9 -0.3
v -0.2 1 0.1
v -0.2 1 -2.98023e-008
v -0.2 1 -0.1
v -0.2 1 -0.2
v -0.2 1.1 -2.98023e-008
v -0.2 1.1 -0.1
v -0.1 1 0.1
v -0.1 1 -2.98023e-008
v -0.1 1 -0.1
v -0.1 1 -0.2
v -0.1 1.1 0.1
v -0.1 1.1 -2.98023e-008
v -0.1 1.1 -0.1
v -0.1 1.1 -0.2
v 0.1 0 -2.98023e-008
v 0.1 0 -0.1
v 0.1 0.1 -2.98023e-008
v 0.1 0.1 -0.1
v 0.1 0.2 -2.98023e-008
v 0.1 0.2 -0.1
v 0.1 0.3 0.2
v 0.1 0.3 0.1
v 0.1 0.4 0.3
v 0.1 0.4 0.2
v 0.1 0.6 0.3
v 0.1 0.6 0.2
v 0.1 0.6 0.1
v 0.1 0.7 0.2
v 0.1 0.7 0.1
v 0.2 0.2 0.3
v 0.2 0.2 0.2
v 0.2 0.2 0.1
v 0.2 0.3 0.3
v 0.2 0.3 0.2
v 0.2 0.3 0.1
v 0.2 0.4 0.3
v 0.2 0.4 0.2
v 0.2 0.7 0.2
v 0.2 0.7 0.1
v 0.2 0.8 0.2
v 0.2 0.8 0.1
v -0.2 0.2 0.3
v -0.2 0.2 0.1
v -0.2 0.3 0.3
v -0.2 0.3 0.1
v -0.2 0.4 0.3
v -0.2 0.4 0.1
v -0.2 0.7 0.2
v -0.2 0.7 0.1
v -0.2 0.8 0.2
v -0.2 0.8 0.1
v -0.1 0 -2.98023e-008
v -0.1 0 -0.1
v -0.1 0.1 -2.98023e-008
v -0.1 0.1 -0.1
v -0.1 0.2 -2.98023e-008
v -0.1 0.2 -0.1
v -0.1 0.4 0.3
v -0.1 0.4 0.1
v -0.1 0.5 0.1
v -0.1 0.6 0.3
v -0.1 0.6 0.2
v -0.1 0.6 0.1
v -0.1 0.7 0.2
v -0.1 0.7 0.1
v 0.1 1 0.1
v 0.1 1 -2.98023e-008
v 0.1 1 -0.1
v 0.1 1 -0.2
v 0.1 1.1 0.1
v 0.1 1.1 -2.98023e-008
v 0.1 1.1 -0.1
v 0.1 1.1 -0.2
v 0.2 0 -2.98023e-008
v 0.2 0 -0.1
v 0.2 0.1 -2.98023e-008
v 0.2 0.1 -0.1
v 0.2 0.2 -2.98023e-008
v 0.2 0.2 -0.1
v 0.2 0.8 -0.2
v 0.2 0.8 -0.3
v 0.2 0.9 0.1
v 0.2 0.9 -0.2
v 0.2 0.9 -0.3
v 0.2 1 0.1
v 0.2 1 -2.98023e-008
v 0.2 1 -0.1
v 0.2 1 -0.2
v 0.2 1.1 -2.98023e-008
v 0.2 1.1 -0.1
v 0.3 0.2 0.3
v 0.3 0.2 0.2
v 0.3 0.3 0.3
v 0.3 0.3 0.2
v 0.3 0.3 -0.3
v 0.3 0.6 0.3
v 0.3 0.6 0.2
v 0.3 0.8 -0.2
v 0.3 0.8 -0.3
v 0.3 0.9 0.2
v 0.3 0.9 -0.2
v 0.4 0.2 0.2
v 0.4 0.2 -0.4
v 0.4 0.3 0.2
v 0.4 0.3 -0.4
v -0.3 0.2 0.3
v -0.3 0.3 0.3
v -0.3 0.6 0.3
v -0.2 0.2 0.3
v -0.2 0.3 0.3
v -0.2 0.4 0.3
v -0.1 0.4 0.3
v -0.1 0.6 0.3
v 0.1 0.4 0.3
v 0.1 0.6 0.3
v 0.2 0.2 0.3
v 0.2 0.3 0.3
v 0.2 0.4 0.3
v 0.3 0.2 0.3
v 0.3 0.3 0.3
v 0.3 0.6 0.3
v -0.4 0.2 0.2
v -0.4 0.3 0.2
v -0.3 0.2 0.2
v -0.3 0.3 0.2
v -0.3 0.6 0.2
v -0.3 0.9 0.2
v -0.2 0.7 0.2
v -0.2 0.8 0.2
v -0.1 0.6 0.2
v -0.1 0.7 0.2
v 0.1 0.3 0.2
v 0.1 0.4 0.2
v 0.1 0.6 0.2
v 0.1 0.7 0.2
v 0.2 0.3 0.2
v 0.2 0.4 0.2
v 0.2 0.7 0.2
v 0.2 0.8 0.2
v 0.3 0.2 0.2
v 0.3 0.3 0.2
v 0.3 0.6 0.2
v 0.3 0.9 0.2
v 0.4 0.2 0.2
v 0.4 0.3 0.2
v -0.2 0.2 0.1
v -0.2 0.3 0.1
v -0.2 0.4 0.1
v -0.2 0.7 0.1
v -0.2 0.8 0.1
v -0.2 0.9 0.1
v -0.2 1 0.1
v -0.1 0.3 0.1
v -0.1 0.4 0.1
v -0.1 0.5 0.1
v -0.1 0.6 0.1
v -0.1 0.7 0.1
v -0.1 0.8 0.1
v -0.1 1 0.1
v -0.1 1.1 0.1
v 0 0.3 0.1
v 0 0.5 0.1
v 0.1 0.3 0.1
v 0.1 0.6 0.1
v 0.1 0.7 0.1
v 0.1 0.8 0.1
v 0.1 1 0.1
v 0.1 1.1 0.1
v 0.2 0.2 0.1
v 0.2 0.3 0.1
v 0.2 0.7 0.1
v 0.2 0.8 0.1
v 0.2 0.9 0.1
v 0.2 1 0.1
v -0.2 0 -2.98023e-008
v -0.2 0.1 -2.98023e-008
v -0.2 0.2 -2.98023e-008
v -0.2 1 -2.98023e-008
v -0.2 1.1 -2.98023e-008
v -0.1 0 -2.98023e-008
v -0.1 0.1 -2.98023e-008
v -0.1 0.2 -2.98023e-008
v -0.1 1 -2.98023e-008
v -0.1 1.1 -2.98023e-008
v 0.1 0 -2.98023e-008
v 0.1 0.1 -2.98023e-008
v 0.1 0.2 -2.98023e-008
v 0.1 1 -2.98023e-008
v 0.1 1.1 -2.98023e-008
v 0.2 0 -2.98023e-008
v 0.2 0.1 -2.98023e-008
v 0.2 0.2 -2.98023e-008
v 0.2 1 -2.98023e-008
v 0.2 1.1 -2.98023e-008
v -0.2 0 -0.1
v -0.2 0.1 -0.1
v -0.2 0.2 -0.1
v -0.2 1 -0.1
v -0.2 1.1 -0.1
v -0.1 0 -0.1
v -0.1 0.1 -0.1
v -0.1 0.2 -0.1
v -0.1 1 -0.1
v -0.1 1.1 -0.1
v 0.1 0 -0.1
v 0.1 0.1 -0.1
v 0.1 0.2 -0.1
v 0.1 1 -0.1
v 0.1 1.1 -0.1
v 0.2 0 -0.1
v 0.2 0.1 -0.1
v 0.2 0.2 -0.1
v 0.2 1 -0.1
v 0.2 1.1 -0.1
v -0.3 0.8 -0.2
v -0.3 0.9 -0.2
v -0.2 0.8 -0.2
v -0.2 0.9 -0.2
v -0.2 1 -0.2
v -0.1 1 -0.2
v -0.1 1.1 -0.2
v 0.1 1 -0.2
v 0.1 1.1 -0.2
v 0.2 0.8 -0.2
v 0.2 0.9 -0.2
v 0.2 1 -0.2
v 0.3 0.8 -0.2
v 0.3 0.9 -0.2
v -0.3 0.3 -0.3
v -0.3 0.8 -0.3
v -0.2 0.8 -0.3
v -0.2 0.9 -0.3
v 0.2 0.8 -0.3
v 0.2 0.9 -0.3
v 0.3 0.3 -0.3
v 0.3 0.8 -0.3
v -0.4 0.2 -0.4
v -0.4 0.3 -0.4
v 0.4 0.2 -0.4
v 0.4 0.3 -0.4
v -0.2 0 -2.98023e-008
v -0.1 0 -2.98023e-008
v 0.1 0 -2.98023e-008
v 0.2 0 -2.98023e-008
v -0.2 0 -0.1
v -0.1 0 -0.1
v 0.1 0 -0.1
v 0.2 0 -0.1
v -0.3 0.2 0.3
v -0.2 0.2 0.3
v 0.2 0.2 0.3
v 0.3 0.2 0.3
v -0.4 0.2 0.2
v -0.3 0.2 0.2
v 0.2 0.2 0.2
v 0.3 0.2 0.2
v 0.4 0.2 0.2
v -0.3 0.2 0.1
v -0.2 0.2 0.1
v 0.2 0.2 0.1
v 0.3 0.2 0.1
v -0.3 0.2 -2.98023e-008
v -0.2 0.2 -2.98023e-008
v -0.1 0.2 -2.98023e-008
v 0 0.2 -2.98023e-008
v 0.1 0.2 -2.98023e-008
v 0.2 0.2 -2.98023e-008
v 0.3 0.2 -2.98023e-008
v -0.3 0.2 -0.1
v -0.2 0.2 -0.1
v -0.1 0.2 -0.1
v 0.1 0.2 -0.1
v 0.2 0.2 -0.1
v 0.3 0.2 -0.1
v -0.3 0.2 -0.2
v -0.2 0.2 -0.2
v 0.2 0.2 -0.2
v 0.3 0.2 -0.2
v -0.3 0.2 -0.3
v -0.2 0.2 -0.3
v -0.1 0.2 -0.3
v 0 0.2 -0.3
v 0.1 0.2 -0.3
v 0.2 0.2 -0.3
v 0.3 0.2 -0.3
v -0.4 0.2 -0.4
v 0.4 0.2 -0.4
v 0.1 0.3 0.2
v 0.2 0.3 0.2
v 0.1 0.3 0.1
v 0.2 0.3 0.1
v -0.2 0.4 0.3
v -0.1 0.4 0.3
v 0.1 0.4 0.3
v 0.2 0.4 0.3
v 0.1 0.4 0.2
v 0.2 0.4 0.2
v -0.2 0.4 0.1
v -0.1 0.4 0.1
v -0.2 0.8 0.2
v 0.2 0.8 0.2
v -0.2 0.8 0.1
v -0.1 0.8 0.1
v 0.1 0.8 0.1
v 0.2 0.8 0.1
v -0.4 0.3 0.2
v -0.3 0.3 0.2
v 0.3 0.3 0.2
v 0.4 0.3 0.2
v -0.3 0.3 -0.3
v 0.3 0.3 -0.3
v -0.4 0.3 -0.4
v 0.4 0.3 -0.4
v -0.3 0.6 0.3
v -0.1 0.6 0.3
v 0.1 0.6 0.3
v 0.3 0.6 0.3
v -0.3 0.6 0.2
v -0.1 0.6 0.2
v 0.1 0.6 0.2
v 0.3 0.6 0.2
v -0.2 0.7 0.2
v -0.1 0.7 0.2
v 0.1 0.7 0.2
v 0.2 0.7 0.2
v -0.2 0.7 0.1
v -0.1 0.7 0.1
v 0.1 0.7 0.1
v 0.2 0.7 0.1
v -0.3 0.8 -0.2
v -0.2 0.8 -0.2
v 0.2 0.8 -0.2
v 0.3 0.8 -0.2
v -0.3 0.8 -0.3
v -0.2 0.8 -0.3
v 0.2 0.8 -0.3
v 0.3 0.8 -0.3
v -0.3 0.9 0.2
v 0.3 0.9 0.2
v -0.2 0.9 0.1
v 0.2 0.9 0.1
v -0.3 0.9 -0.2
v -0.2 0.9 -0.2
v 0.2 0.9 -0.2
v 0.3 0.9 -0.2
v -0.2 0.9 -0.3
v 0.2 0.9 -0.3
v -0.2 1 0.1
v -0.1 1 0.1
v 0.1 1 0.1
v 0.2 1 0.1
v -0.2 1 -2.98023e-008
v -0.1 1 -2.98023e-008
v 0.1 1 -2.98023e-008
v 0.2 1 -2.98023e-008
v -0.2 1 -0.1
v -0.1 1 -0.1
v 0.1 1 -0.1
v 0.2 1 -0.1
v -0.2 1 -0.2
v -0.1 1 -0.2
v 0.1 1 -0.2
v 0.2 1 -0.2
v -0.1 1.1 0.1
v 0.1 1.1 0.1
v -0.2 1.1 -2.98023e-008
v -0.1 1.1 -2.98023e-008
v 0.1 1.1 -2.98023e-008
v 0.2 1.1 -2.98023e-008
v -0.2 1.1 -0.1
v -0.1 1.1 -0.1
v 0.1 1.1 -0.1
v 0.2 1.1 -0.1
v -0.1 1.1 -0.2
v 0.1 1.1 -0.2

# faces
f 3/2/1 2/2/1 1/2/1
f 4/2/1 2/2/1 3/2/1
f 7/2/1 6/2/1 5/2/1
f 8/2/1 6/2/1 7/2/1
f 10/4/1 8/4/1 7/4/1
f 10/4/1 9/4/1 8/4/1
f 11/4/1 9/4/1 10/4/1
f 12/4/1 9/4/1 11/4/1
f 13/4/1 9/4/1 12/4/1
f 14/4/1 12/4/1 11/4/1
f 15/4/1 12/4/1 14/4/1
f 18/5/1 17/5/1 16/5/1
f 19/5/1 17/5/1 18/5/1
f 20/1/1 19/1/1 18/1/1
f 21/1/1 19/1/1 20/1/1
f 25/4/1 23/4/1 22/4/1
f 26/4/1 23/4/1 25/4/1
f 27/4/1 25/4/1 24/4/1
f 28/4/1 25/4/1 27/4/1
f 29/4/1 25/4/1 28/4/1
f 30/4/1 25/4/1 29/4/1
f 31/4/1 29/4/1 28/4/1
f 32/4/1 29/4/1 31/4/1
f 37/4/1 34/4/1 33/4/1
f 38/4/1 34/4/1 37/4/1
f 39/4/1 36/4/1 35/4/1
f 40/4/1 36/4/1 39/4/1
f 43/5/1 42/5/1 41/5/1
f 44/5/1 42/5/1 43/5/1
f 45/1/1 44/1/1 43/1/1
f 46/1/1 44/1/1 45/1/1
f 50/4/1 48/4/1 47/4/1
f 51/4/1 50/4/1 49/4/1
f 52/4/1 48/4/1 50/4/1
f 52/4/1 50/4/1 51/4/1
f 53/4/1 48/4/1 52/4/1
f 54/4/1 53/4/1 52/4/1
f 55/4/1 53/4/1 54/4/1
f 59/2/1 57/2/1 56/2/1
f 60/6/1 58/6/1 57/6/1
f 60/2/1 57/2/1 59/2/1
f 61/6/1 58/6/1 60/6/1
f 62/4/1 60/4/1 59/4/1
f 63/4/1 60/4/1 62/4/1
f 66/4/1 65/4/1 64/4/1
f 67/4/1 65/4/1 66/4/1
f 68/2/2 69/2/2 70/2/2
f 70/2/2 69/2/2 71/2/2
f 70/4/2 71/4/2 72/4/2
f 72/4/2 71/4/2 73/4/2
f 74/4/2 75/4/2 76/4/2
f 76/4/2 75/4/2 77/4/2
f 78/5/2 79/5/2 80/5/2
f 80/5/2 79/5/2 81/5/2
f 80/1/2 81/1/2 82/1/2
f 82/1/2 81/1/2 83/1/2
f 84/4/2 85/4/2 86/4/2
f 84/4/2 86/4/2 87/4/2
f 87/4/2 86/4/2 88/4/2
f 88/4/2 86/4/2 89/4/2
f 88/4/2 89/4/2 90/4/2
f 90/4/2 89/4/2 91/4/2
f 92/4/2 93/4/2 96/4/2
f 96/4/2 93/4/2 97/4/2
f 94/4/2 95/4/2 98/4/2
f 98/4/2 95/4/2 99/4/2
f 100/5/2 101/5/2 102/5/2
f 102/5/2 101/5/2 103/5/2
f 102/1/2 103/1/2 104/1/2
f 104/1/2 103/1/2 105/1/2
f 106/4/2 107/4/2 109/4/2
f 109/4/2 107/4/2 110/4/2
f 108/4/2 109/4/2 111/4/2
f 111/4/2 109/4/2 112/4/2
f 112/4/2 109/4/2 113/4/2
f 113/4/2 109/4/2 114/4/2
f 112/4/2 113/4/2 115/4/2
f 115/4/2 113/4/2 116/4/2
f 117/2/2 118/2/2 119/2/2
f 119/2/2 118/2/2 120/2/2
f 119/4/2 120/4/2 122/4/2
f 120/4/2 121/4/2 122/4/2
f 122/4/2 121/4/2 123/4/2
f 123/4/2 121/4/2 124/4/2
f 124/4/2 121/4/2 125/4/2
f 123/4/2 124/4/2 126/4/2
f 126/4/2 124/4/2 127/4/2
f 128/2/2 129/2/2 130/2/2
f 130/2/2 129/2/2 131/2/2
f 135/2/3 133/2/3 132/2/3
f 136/4/3 134/4/3 133/4/3
f 136/2/3 133/2/3 135/2/3
f 137/4/3 134/4/3 136/4/3
f 138/4/3 134/4/3 137/4/3
f 139/4/3 134/4/3 138/4/3
f 144/4/3 141/4/3 140/4/3
f 145/2/3 143/2/3 142/2/3
f 146/4/3 144/4/3 143/4/3
f 146/2/3 143/2/3 145/2/3
f 147/4/3 141/4/3 144/4/3
f 147/4/3 144/4/3 146/4/3
f 150/2/3 149/2/3 148/2/3
f 151/2/3 149/2/3 150/2/3
f 154/4/3 153/4/3 152/4/3
f 155/4/3 153/4/3 154/4/3
f 156/4/3 154/4/3 152/4/3
f 157/4/3 154/4/3 156/4/3
f 162/4/3 159/4/3 158/4/3
f 163/4/3 159/4/3 162/4/3
f 164/4/3 161/4/3 160/4/3
f 165/4/3 153/4/3 155/4/3
f 168/4/3 164/4/3 160/4/3
f 168/4/3 165/4/3 164/4/3
f 169/4/3 153/4/3 165/4/3
f 169/4/3 165/4/3 168/4/3
f 170/2/3 167/2/3 166/2/3
f 171/2/3 167/2/3 170/2/3
f 179/2/3 173/2/3 172/2/3
f 179/6/3 174/6/3 173/6/3
f 180/6/3 174/6/3 179/6/3
f 183/9/3 176/9/3 175/9/3
f 184/9/3 176/9/3 183/9/3
f 185/4/3 178/4/3 177/4/3
f 187/2/3 179/2/3 172/2/3
f 187/8/3 180/8/3 179/8/3
f 187/8/3 181/8/3 180/8/3
f 188/6/3 182/6/3 181/6/3
f 188/8/3 181/8/3 187/8/3
f 189/2/3 187/2/3 172/2/3
f 189/6/3 188/6/3 187/6/3
f 190/1/3 184/1/3 183/1/3
f 190/6/3 188/6/3 189/6/3
f 190/6/3 182/6/3 188/6/3
f 190/1/3 183/1/3 182/1/3
f 191/1/3 184/1/3 190/1/3
f 192/1/3 184/1/3 191/1/3
f 193/4/3 186/4/3 185/4/3
f 193/4/3 185/4/3 177/4/3
f 194/4/3 186/4/3 193/4/3
f 195/2/3 189/2/3 172/2/3
f 196/2/3 189/2/3 195/2/3
f 197/9/3 192/9/3 191/9/3
f 198/9/3 192/9/3 197/9/3
f 199/4/3 193/4/3 177/4/3
f 200/4/3 193/4/3 199/4/3
f 206/5/3 202/5/3 201/5/3
f 207/1/3 203/1/3 202/1/3
f 207/5/3 202/5/3 206/5/3
f 208/1/3 203/1/3 207/1/3
f 209/4/3 205/4/3 204/4/3
f 210/4/3 205/4/3 209/4/3
f 216/5/3 212/5/3 211/5/3
f 217/1/3 213/1/3 212/1/3
f 217/5/3 212/5/3 216/5/3
f 218/1/3 213/1/3 217/1/3
f 219/4/3 215/4/3 214/4/3
f 220/4/3 215/4/3 219/4/3
f 221/5/4 222/5/4 226/5/4
f 222/1/4 223/1/4 227/1/4
f 226/5/4 222/5/4 227/5/4
f 227/1/4 223/1/4 228/1/4
f 224/4/4 225/4/4 229/4/4
f 229/4/4 225/4/4 230/4/4
f 231/5/4 232/5/4 236/5/4
f 232/1/4 233/1/4 237/1/4
f 236/5/4 232/5/4 237/5/4
f 237/1/4 233/1/4 238/1/4
f 234/4/4 235/4/4 239/4/4
f 239/4/4 235/4/4 240/4/4
f 241/4/4 242/4/4 243/4/4
f 243/4/4 242/4/4 244/4/4
f 244/4/4 245/4/4 246/4/4
f 244/4/4 246/4/4 248/4/4
f 246/4/4 247/4/4 248/4/4
f 248/4/4 247/4/4 249/4/4
f 244/4/4 248/4/4 251/4/4
f 251/4/4 248/4/4 252/4/4
f 250/4/4 251/4/4 253/4/4
f 253/4/4 251/4/4 254/4/4
f 255/4/4 256/4/4 257/4/4
f 255/4/4 257/4/4 259/4/4
f 257/4/4 258/4/4 259/4/4
f 259/4/4 258/4/4 260/4/4
f 255/4/4 259/4/4 261/4/4
f 261/4/4 259/4/4 262/4/4
f 263/2/4 264/2/4 265/2/4
f 265/2/4 264/2/4 266/2/4
f 271/5/5 268/5/5 267/5/5
f 272/5/5 268/5/5 271/5/5
f 273/5/5 270/5/5 269/5/5
f 274/5/5 270/5/5 273/5/5
f 280/2/5 276/2/5 275/2/5
f 281/2/5 278/2/5 277/2/5
f 282/2/5 278/2/5 281/2/5
f 284/2/5 280/2/5 279/2/5
f 284/2/5 276/2/5 280/2/5
f 285/2/5 276/2/5 284/2/5
f 286/6/5 282/6/5 281/6/5
f 287/2/5 283/2/5 282/2/5
f 287/6/5 282/6/5 286/6/5
f 288/6/5 285/6/5 284/6/5
f 288/2/5 284/2/5 279/2/5
f 289/2/5 286/2/5 285/2/5
f 289/6/5 285/6/5 288/6/5
f 290/2/5 286/2/5 289/2/5
f 291/2/5 286/2/5 290/2/5
f 292/2/5 286/2/5 291/2/5
f 293/8/5 287/8/5 286/8/5
f 293/2/5 286/2/5 292/2/5
f 294/2/5 283/2/5 287/2/5
f 294/8/5 287/8/5 293/8/5
f 295/2/5 288/2/5 279/2/5
f 295/8/5 289/8/5 288/8/5
f 296/8/5 289/8/5 295/8/5
f 297/8/5 291/8/5 290/8/5
f 298/6/5 292/6/5 291/6/5
f 299/6/5 294/6/5 293/6/5
f 300/2/5 283/2/5 294/2/5
f 300/6/5 294/6/5 299/6/5
f 301/6/5 297/6/5 296/6/5
f 301/6/5 296/6/5 295/6/5
f 301/2/5 295/2/5 279/2/5
f 302/6/5 297/6/5 301/6/5
f 303/8/5 299/8/5 298/8/5
f 303/8/5 300/8/5 299/8/5
f 304/2/5 283/2/5 300/2/5
f 304/8/5 300/8/5 303/8/5
f 305/8/5 302/8/5 301/8/5
f 305/2/5 301/2/5 279/2/5
f 306/6/5 297/6/5 302/6/5
f 306/8/5 302/8/5 305/8/5
f 307/8/5 291/8/5 297/8/5
f 307/6/5 297/6/5 306/6/5
f 308/6/5 298/6/5 291/6/5
f 308/8/5 291/8/5 307/8/5
f 309/8/5 303/8/5 298/8/5
f 309/6/5 298/6/5 308/6/5
f 310/6/5 304/6/5 303/6/5
f 310/8/5 303/8/5 309/8/5
f 311/2/5 283/2/5 304/2/5
f 311/6/5 304/6/5 310/6/5
f 312/2/5 305/2/5 279/2/5
f 312/2/5 307/2/5 306/2/5
f 312/2/5 311/2/5 310/2/5
f 312/2/5 309/2/5 308/2/5
f 312/2/5 306/2/5 305/2/5
f 312/2/5 308/2/5 307/2/5
f 312/2/5 310/2/5 309/2/5
f 313/2/5 283/2/5 311/2/5
f 313/2/5 311/2/5 312/2/5
f 316/4/5 315/4/5 314/4/5
f 317/4/5 315/4/5 316/4/5
f 322/4/5 321/4/5 320/4/5
f 323/4/5 321/4/5 322/4/5
f 324/4/5 319/4/5 318/4/5
f 325/4/5 319/4/5 324/4/5
f 328/4/5 327/4/5 326/4/5
f 329/4/5 327/4/5 328/4/5
f 330/4/5 327/4/5 329/4/5
f 331/4/5 327/4/5 330/4/5
f 332/2/6 333/2/6 336/2/6
f 334/2/6 335/2/6 337/2/6
f 332/2/6 336/2/6 338/2/6
f 336/2/6 337/2/6 338/2/6
f 337/2/6 335/2/6 339/2/6
f 338/2/6 337/2/6 339/2/6
f 340/4/6 341/4/6 344/4/6
f 344/4/6 341/4/6 345/4/6
f 342/4/6 343/4/6 346/4/6
f 346/4/6 343/4/6 347/4/6
f 348/4/6 349/4/6 352/4/6
f 352/4/6 349/4/6 353/4/6
f 350/4/6 351/4/6 354/4/6
f 354/4/6 351/4/6 355/4/6
f 356/4/6 357/4/6 360/4/6
f 360/4/6 357/4/6 361/4/6
f 358/4/6 359/4/6 362/4/6
f 362/4/6 359/4/6 363/4/6
f 364/4/6 365/4/6 366/4/6
f 366/4/6 365/4/6 367/4/6
f 364/4/6 366/4/6 368/4/6
f 368/4/6 366/4/6 369/4/6
f 367/4/6 365/4/6 370/4/6
f 370/4/6 365/4/6 371/4/6
f 369/4/6 370/4/6 372/4/6
f 372/4/6 370/4/6 373/4/6
f 374/4/6 375/4/6 378/4/6
f 378/4/6 375/4/6 379/4/6
f 376/4/6 377/4/6 380/4/6
f 380/4/6 377/4/6 381/4/6
f 382/4/6 383/4/6 386/4/6
f 386/4/6 383/4/6 387/4/6
f 384/4/6 385/4/6 388/4/6
f 388/4/6 385/4/6 389/4/6
f 390/4/6 391/4/6 393/4/6
f 393/4/6 391/4/6 394/4/6
f 392/4/6 393/4/6 396/4/6
f 394/4/6 395/4/6 396/4/6
f 393/4/6 394/4/6 396/4/6
f 396/4/6 395/4/6 397/4/6
f 397/4/6 395/4/6 398/4/6
f 398/4/6 395/4/6 399/4/6
f 397/4/6 398/4/6 400/4/6
f 400/4/6 398/4/6 401/4/6
